<?xml version="1.0" standalone="no"?>
<!DOCTYPE svg PUBLIC "-//W3C//DTD SVG 20010904//EN"
 "http://www.w3.org/TR/2001/REC-SVG-20010904/DTD/svg10.dtd">
<svg version="1.0" xmlns="http://www.w3.org/2000/svg"
 width="700.000000pt" height="700.000000pt" viewBox="0 0 700.000000 700.000000"
 preserveAspectRatio="xMidYMid meet">
<metadata>
Created by potrace 1.11, written by Peter Selinger 2001-2013
</metadata>
<g transform="translate(0.000000,700.000000) scale(0.100000,-0.100000)"
fill="#000000" stroke="none">
<path d="M2057 6815 c-26 -6 -56 -20 -68 -31 -22 -20 -58 -83 -65 -115 -2 -11
-6 -29 -9 -41 -2 -13 -18 -84 -34 -158 -17 -74 -32 -146 -35 -160 -2 -14 -15
-83 -29 -155 -25 -126 -59 -317 -72 -400 -3 -22 -10 -67 -15 -100 -12 -84 -17
-121 -26 -190 -3 -33 -8 -67 -9 -75 -5 -26 -20 -171 -30 -285 -4 -38 -8 -86
-10 -105 -13 -121 -20 -333 -20 -585 0 -250 3 -342 20 -545 6 -72 17 -186 21
-204 2 -11 8 -56 15 -100 13 -100 57 -330 70 -372 5 -17 11 -40 13 -50 35
-175 151 -501 259 -724 90 -186 263 -462 356 -565 14 -16 37 -43 49 -60 86
-112 335 -349 467 -445 33 -24 62 -46 65 -49 19 -22 282 -186 385 -240 359
-189 783 -332 1250 -420 88 -16 185 -33 215 -36 30 -3 62 -8 70 -10 8 -2 40
-7 70 -10 30 -3 66 -8 80 -10 14 -2 59 -7 100 -11 41 -3 89 -8 105 -10 17 -1
77 -6 135 -9 58 -4 132 -8 165 -10 33 -2 148 -5 255 -6 194 -3 195 -3 236 23
81 52 108 140 68 224 -21 44 -57 73 -154 126 -41 22 -106 60 -143 84 -37 24
-70 44 -72 44 -9 0 -245 157 -371 246 -398 282 -806 641 -1099 968 -38 43 -81
90 -94 104 -141 154 -412 510 -566 742 -114 173 -255 405 -255 420 0 6 -4 10
-10 10 -5 0 -10 5 -10 10 0 6 -20 46 -44 89 -51 88 -195 375 -251 496 -51 110
-181 414 -190 445 -4 14 -13 39 -20 55 -8 17 -42 109 -75 205 -34 96 -65 182
-68 190 -3 8 -6 17 -7 20 -1 3 -20 64 -43 135 -103 327 -232 822 -276 1070 -3
17 -13 64 -21 105 -8 41 -26 136 -39 210 -33 186 -46 214 -110 247 -51 27 -80
31 -129 18z m163 -1495 c107 -378 291 -896 412 -1160 17 -36 34 -76 40 -90 19
-51 96 -211 189 -395 325 -642 724 -1217 1199 -1725 114 -122 315 -321 389
-386 25 -22 56 -50 71 -64 14 -14 53 -47 85 -75 32 -27 75 -64 94 -81 113 -97
394 -310 534 -404 39 -26 49 -45 20 -36 -10 3 -51 8 -92 11 -41 4 -86 8 -100
10 -14 2 -48 6 -76 10 -27 3 -61 8 -75 10 -14 2 -45 7 -70 11 -45 6 -183 31
-315 58 -418 85 -896 274 -1215 480 -86 56 -240 166 -260 186 -3 3 -39 34 -80
70 -41 36 -77 68 -81 72 -3 4 -41 45 -85 90 -264 274 -465 616 -610 1040 -24
69 -45 137 -48 150 -3 12 -16 66 -30 118 -25 97 -63 277 -71 340 -6 44 -17
120 -20 140 -2 8 -6 47 -10 85 -4 39 -9 84 -11 100 -25 189 -24 884 0 1095 3
19 7 69 11 110 9 110 20 214 30 280 5 40 14 111 20 160 3 25 7 56 10 70 3 14
8 45 11 70 11 92 17 87 51 -45 18 -71 55 -209 83 -305z"/>
</g>
</svg>
